<svg xmlns="http://www.w3.org/2000/svg" viewBox="0 0 128.39 42.4"><defs><style>.cls-1{fill:#fff;}</style></defs><title>jawalahHomeBlack</title><g id="Layer_2" data-name="Layer 2"><rect x="-0.18" width="128.56" height="42.4"/><path class="cls-1" d="M96.05,8.38A20.88,20.88,0,0,0,96.73,14a21.09,21.09,0,0,0,2.17,5.18,22.3,22.3,0,0,0-3.38-1.6,19.71,19.71,0,0,0-3.63-1,20.54,20.54,0,0,0-3.75-.28.23.23,0,0,1,.12-.1,20.9,20.9,0,0,0,2.83-1.93,20.11,20.11,0,0,0,4.84-5.75L96,8.39Z"/><path class="cls-1" d="M115.69,16.28a20.36,20.36,0,0,0-10.76,2.87A21,21,0,0,0,107.11,14a21.58,21.58,0,0,0,.69-5.57A20.4,20.4,0,0,0,115.69,16.28Z"/><path class="cls-1" d="M107.51,8.24a20.32,20.32,0,0,0-5.58,9.66c-.16-.53-.31-1-.48-1.55s-.36-1-.57-1.51-.44-1-.69-1.46-.52-.94-.8-1.39-.6-.9-.92-1.33-.67-.85-1-1.25-.73-.79-1.12-1.2a20.28,20.28,0,0,0,5.6.8A20.81,20.81,0,0,0,107.51,8.24Z"/><path class="cls-1" d="M107.49,36.08a20.31,20.31,0,0,0-11.17,0,20.43,20.43,0,0,0,5.6-9.65A20.5,20.5,0,0,0,107.49,36.08Z"/><path class="cls-1" d="M97.64,22.16A20.39,20.39,0,0,0,88,27.76a20.39,20.39,0,0,0,0-11.21A20.38,20.38,0,0,0,97.64,22.16Z"/><path class="cls-1" d="M106.19,22.16a20.38,20.38,0,0,0,9.62-5.61,20.36,20.36,0,0,0,0,11.21A20.39,20.39,0,0,0,106.19,22.16Z"/><path class="cls-1" d="M88.16,28a20.79,20.79,0,0,0,5.57-.68,21,21,0,0,0,5.17-2.17A20.6,20.6,0,0,0,96,36a3.7,3.7,0,0,1-.24-.39l-.24-.4-.25-.4L95,34.37,94.77,34l-.28-.38-.29-.37-.3-.37-.3-.36-.31-.35L93,31.8l-.33-.34-.33-.32L92,30.82l-.35-.31-.36-.31-.37-.3-.37-.29-.38-.28-.39-.27-.39-.26-.4-.25-.4-.24-.4-.23Z"/><path class="cls-1" d="M104.93,25.17A20.13,20.13,0,0,0,115.7,28c-.55.35-1.08.67-1.6,1a17.16,17.16,0,0,0-1.5,1.12q-.73.6-1.4,1.27t-1.26,1.39a17.32,17.32,0,0,0-1.13,1.51c-.34.52-.67,1.05-1,1.59,0,0,0-.08,0-.12,0-.48,0-1,0-1.44a19.48,19.48,0,0,0-.56-3.71A20.29,20.29,0,0,0,105,25.3l0-.09A.19.19,0,0,1,104.93,25.17Z"/><path class="cls-1" d="M12.38,24.38a1.18,1.18,0,0,0,0-.19c0-.48.05-1,.09-1.43a4.75,4.75,0,0,1,.41-1.59A3.76,3.76,0,0,1,15,19.24a6.69,6.69,0,0,1,1.88-.44c1.21-.13,2.43-.15,3.65-.18l.79,0h.27c0,2.91,0,5.81,0,8.74.28,0,.54.05.8.06h6.4a2,2,0,0,0,.37,0,.49.49,0,0,0,.42-.42,2.53,2.53,0,0,0,0-.44c0-1.83,0-3.65,0-5.48q0-6.21,0-12.41c0-.09,0-.17,0-.26.17-.05,2.72-.07,3.08,0,0,.18,0,21.65,0,21.95-.16,0-20,.05-20.23,0,0-.07,0-.15,0-.23q0-1.42,0-2.84c0-.75,0-1.5,0-2.24a2.16,2.16,0,0,0,0-.24Zm3.37,2.92a18.81,18.81,0,0,0,2.62,0s0-.08,0-.13q0-2.45,0-4.9a2.16,2.16,0,0,0,0-.23,2.3,2.3,0,0,0-.83.07,3.48,3.48,0,0,0-1.24.47,1,1,0,0,0-.5.92c0,1.19,0,2.37,0,3.56C15.73,27.13,15.74,27.21,15.75,27.31Z"/><path class="cls-1" d="M52.64,18.59c0,.35,0,.67,0,1q0,3.51,0,7a3,3,0,0,0,0,.35.45.45,0,0,0,.45.43H70.91a.75.75,0,0,0,.43-.09l-.11-.2c-.72-1.2-1.51-2.36-2.3-3.52L67.18,21a2.69,2.69,0,0,0-.84-.83,2.38,2.38,0,0,0-.6-.26.88.88,0,0,0-1,.42,1.55,1.55,0,0,0-.22.73c0,.34,0,.69-.05,1,0,.12,0,.25,0,.39H61.3c0-.2,0-.39.07-.59.09-.63.17-1.26.26-1.89a6.09,6.09,0,0,1,.15-.64,2.94,2.94,0,0,1,1-1.54,4.33,4.33,0,0,1,2.19-1,4.69,4.69,0,0,1,4.26,1.51,9.54,9.54,0,0,1,1,1.2c1.22,1.77,2.41,3.55,3.62,5.33.35.51.69,1,1.06,1.52a3.07,3.07,0,0,1,.6,1.83c0,.29,0,.57,0,.86s0,.82,0,1.26l-.24,0H53.7a3.37,3.37,0,0,0-.55,0,.6.6,0,0,0-.5.44,2,2,0,0,0-.09.43A3.46,3.46,0,0,1,51.93,33,6.54,6.54,0,0,1,51,34a.9.9,0,0,1-.61.26H47l-.11,0,.13-.16,1.08-1.07a5.27,5.27,0,0,0,1-1.31,3.63,3.63,0,0,0,.36-1.19.8.8,0,0,0,0-.11l-.28,0H43.59c0-.11,0-.19,0-.28q0-2.74,0-5.48c0-.56,0-1.13,0-1.69A4.68,4.68,0,0,1,44,21.33a3.91,3.91,0,0,1,2.57-2.27,7.16,7.16,0,0,1,1.79-.3c1.11-.06,2.23-.1,3.34-.14l.7,0ZM49.48,22a2.55,2.55,0,0,0-1,0,1.84,1.84,0,0,0-1.55,1.35,2,2,0,0,0-.09.54c0,1.11,0,2.21,0,3.32a1,1,0,0,0,0,.16l.18,0h1.93a.53.53,0,0,0,.52-.54c0-.09,0-.18,0-.26q0-2.16,0-4.33C49.48,22.17,49.48,22.1,49.48,22Z"/><path class="cls-1" d="M39.73,30.31a28.8,28.8,0,0,1-3,0c0-7.29,0-14.59,0-21.91h3C39.77,8.58,39.78,29.8,39.73,30.31Z"/><path class="cls-1" d="M16.47,14.14A1.86,1.86,0,0,1,15,15.91,2,2,0,0,1,12.89,15a1.57,1.57,0,0,1-.11-1.57,2.07,2.07,0,0,1,2-1.2A1.9,1.9,0,0,1,16.47,14.14Z"/><path class="cls-1" d="M19.22,12.27a2,2,0,0,1,1.89,1.58,1.5,1.5,0,0,1-.1.9,2,2,0,0,1-3.56.11,1.52,1.52,0,0,1-.09-1.2A2,2,0,0,1,19.22,12.27Z"/><circle class="cls-1" cx="67.4" cy="34.11" r="1.83"/></g></svg>