<svg id="Layer_1" data-name="Layer 1" xmlns="http://www.w3.org/2000/svg" viewBox="0 0 425 425"><defs><style>.cls-1{fill:#606060;}.cls-2{fill:#009587;}.cls-3{fill:#616161;}</style></defs><title>Artboard 2</title><path class="cls-1" d="M213.5,112.44H337.88c1.84,0,3.7-.1,5.52.08,4.43.43,5.36,2.55,2.77,6.27a25.26,25.26,0,0,1-2.56,2.89q-59.76,62.55-119.53,125.09c-7.56,7.91-12.08,7.87-19.78-.07q-60.43-62.29-120.83-124.6a7.29,7.29,0,0,1-1.51-1.6c-1-2-1.8-4.13-2.68-6.2,2-.62,4-1.75,6-1.77,14.19-.16,28.38-.09,42.57-.09Z"/><path class="cls-1" d="M70.21,308.29a48.53,48.53,0,0,0,6.2-3.62Q117,272.29,157.58,239.8c7.69-6.14,12.73-5.73,19.68,1.42,9.37,9.65,18.68,19.36,28.07,29,6.12,6.26,11.44,6.28,17.5,0,9.59-9.94,19.06-20,28.64-30,6.19-6.43,11.56-6.87,18.43-1.4q41.49,33.07,82.86,66.31c1.59,1.28,2.51,3.38,3.74,5.1-2.1.74-4.19,2.13-6.29,2.13q-135.7.16-271.41,0a46.49,46.49,0,0,1-6.73-1Z"/><path class="cls-1" d="M61.57,210c0-25.41,0-50.81.07-76.22,0-2.21,1-4.42,1.57-6.64,2.17,1,4.87,1.55,6.44,3.16q40.13,41.09,80,82.44c5.75,6,5.34,11.07-1.23,16.35q-38.76,31.12-77.67,62c-1.81,1.43-4.56,1.68-6.88,2.48-.76-2.28-2.17-4.56-2.18-6.85C61.51,261.21,61.57,235.62,61.57,210Z"/><path class="cls-1" d="M363.39,209.86c0,24.49.07,49-.11,73.48,0,2.47-1.53,4.93-2.35,7.39-2.44-.92-5.3-1.3-7.25-2.84q-37-29.32-73.81-59c-7.32-5.87-7.64-10.73-1.17-17.52q37.91-39.8,75.87-79.55a10,10,0,0,1,2.37-2.28c1.38-.68,3.11-1.51,4.41-1.19.9.22,1.61,2.24,1.89,3.57a24.4,24.4,0,0,1,.14,5Q363.39,173.4,363.39,209.86Z"/><path class="cls-2" d="M213.5,112.44H337.88c1.84,0,3.7-.1,5.52.08,4.43.43,5.36,2.55,2.77,6.27a25.26,25.26,0,0,1-2.56,2.89q-59.76,62.55-119.53,125.09c-7.56,7.91-12.08,7.87-19.78-.07q-60.43-62.29-120.83-124.6a7.29,7.29,0,0,1-1.51-1.6c-1-2-1.8-4.13-2.68-6.2,2-.62,4-1.75,6-1.77,14.19-.16,28.38-.09,42.57-.09Z"/><path class="cls-3" d="M70.21,308.29a48.53,48.53,0,0,0,6.2-3.62Q117,272.29,157.58,239.8c7.69-6.14,12.73-5.73,19.68,1.42,9.37,9.65,18.68,19.36,28.07,29,6.12,6.26,11.44,6.28,17.5,0,9.59-9.94,19.06-20,28.64-30,6.19-6.43,11.56-6.87,18.43-1.4q41.49,33.07,82.86,66.31c1.59,1.28,2.51,3.38,3.74,5.1-2.1.74-4.19,2.13-6.29,2.13q-135.7.16-271.41,0a46.49,46.49,0,0,1-6.73-1Z"/><path class="cls-3" d="M61.57,210c0-25.41,0-50.81.07-76.22,0-2.21,1-4.42,1.57-6.64,2.17,1,4.87,1.55,6.44,3.16q40.13,41.09,80,82.44c5.75,6,5.34,11.07-1.23,16.35q-38.76,31.12-77.67,62c-1.81,1.43-4.56,1.68-6.88,2.48-.76-2.28-2.17-4.56-2.18-6.85C61.51,261.21,61.57,235.62,61.57,210Z"/><path class="cls-3" d="M363.39,209.86c0,24.49.07,49-.11,73.48,0,2.47-1.53,4.93-2.35,7.39-2.44-.92-5.3-1.3-7.25-2.84q-37-29.32-73.81-59c-7.32-5.87-7.64-10.73-1.17-17.52q37.91-39.8,75.87-79.55a10,10,0,0,1,2.37-2.28c1.38-.68,3.11-1.51,4.41-1.19.9.22,1.61,2.24,1.89,3.57a24.4,24.4,0,0,1,.14,5Q363.39,173.4,363.39,209.86Z"/></svg>