<svg id="Layer_1" data-name="Layer 1" xmlns="http://www.w3.org/2000/svg" viewBox="0 0 425 425"><defs><style>.cls-1{fill:#616161;}.cls-2{fill:#009587;}</style></defs><title>Artboard 1</title><path class="cls-1" d="M366.58,214.85c-2.31,3.11-4.41,6.41-7,9.29-23,26-49.33,47.82-80.63,63.21-22.73,11.18-46.64,17.53-72.17,16.37-23.75-1.08-45.81-8.27-66.63-19.41-30.08-16.08-55.54-37.86-77.66-63.67-5-5.8-5.32-9-1.11-15.38a95.84,95.84,0,0,1,10-12.74c24.79-26.4,53.16-47.75,87.18-61,17.91-7,36.45-10.83,55.74-10.53,23.38.37,45.26,6.71,66,17.15,32.54,16.38,59.72,39.47,83.18,67.12a42.62,42.62,0,0,1,3.06,4.72ZM80.3,211.55c.36.48.63.91,1,1.27,20.58,22.51,43.66,41.89,70.92,55.9,17.74,9.12,36.44,15.07,56.52,15.81,20.77.76,40.3-4.4,58.93-13.21,29.26-13.83,53.68-34.05,75.51-57.63a14.12,14.12,0,0,0,.92-1.25,14.54,14.54,0,0,0-.93-1.26c-20.76-22.49-44-41.8-71.44-55.71-33.8-17.15-68.53-20.14-104.34-6.79-22.62,8.43-42.61,21.18-60.94,36.71A202.61,202.61,0,0,0,80.3,211.55Z"/><path class="cls-2" d="M270.34,212.65a57.74,57.74,0,1,1-57.24-57.94C244.66,154.8,270.42,180.88,270.34,212.65Zm-57.91,19a19.24,19.24,0,1,0-19.07-19.48A19.29,19.29,0,0,0,212.43,231.69Z"/></svg>