<?xml version="1.0" encoding="utf-8"?>
<!-- Generator: Adobe Illustrator 21.1.0, SVG Export Plug-In . SVG Version: 6.00 Build 0)  -->
<svg version="1.1" id="Layer_1" xmlns="http://www.w3.org/2000/svg" xmlns:xlink="http://www.w3.org/1999/xlink" x="0px" y="0px"
	 viewBox="0 0 309 182.9" style="enable-background:new 0 0 309 182.9;" xml:space="preserve">
<style type="text/css">
	.st0{fill:#616161;}
	.st1{fill:#009587;}
</style>
<path class="st0" d="M308.1,93.9c-2.3,3.1-4.4,6.4-7,9.3c-23,26-49.3,47.8-80.6,63.2c-22.7,11.2-46.6,17.5-72.2,16.4
	c-23.8-1.1-45.8-8.3-66.6-19.4C51.6,147.3,26.1,125.5,4,99.7c-5-5.8-5.3-9-1.1-15.4c3-4.5,6.3-8.8,10-12.7
	c24.8-26.4,53.2-47.8,87.2-61C118,3.5,136.5-0.3,155.8,0c23.4,0.4,45.3,6.7,66,17.1c32.5,16.4,59.7,39.5,83.2,67.1
	c1.1,1.5,2.1,3.1,3.1,4.7C309.5,90.5,309.2,92.2,308.1,93.9z M21.8,90.6c0.4,0.5,0.6,0.9,1,1.3c20.6,22.5,43.7,41.9,70.9,55.9
	c17.7,9.1,36.4,15.1,56.5,15.8c20.8,0.8,40.3-4.4,58.9-13.2c29.3-13.8,53.7-34.1,75.5-57.6c0.3-0.4,0.6-0.8,0.9-1.3
	c-0.3-0.4-0.6-0.9-0.9-1.3c-20.8-22.5-44-41.8-71.4-55.7c-33.8-17.1-68.5-20.1-104.3-6.8C86.3,36.1,66.3,48.9,48,64.4
	C38.5,72.3,29.7,81.1,21.8,90.6z"/>
<path class="st1" d="M211.9,91.7c-0.1,31.9-26.1,57.6-57.9,57.5c-31.9-0.1-57.6-26.1-57.5-57.9s26.1-57.6,57.9-57.5
	c0.1,0,0.2,0,0.3,0C186.2,33.8,212,59.9,211.9,91.7z M154,110.7c10.6,0.1,19.3-8.4,19.4-19.1s-8.4-19.3-19.1-19.4
	c-10.6-0.1-19.3,8.4-19.4,19C134.8,101.8,143.3,110.6,154,110.7C154,110.7,154,110.7,154,110.7L154,110.7z"/>
</svg>
