<?xml version="1.0" encoding="utf-8"?>
<!-- Generator: Adobe Illustrator 21.1.0, SVG Export Plug-In . SVG Version: 6.00 Build 0)  -->
<svg version="1.1" id="Layer_1" xmlns="http://www.w3.org/2000/svg" xmlns:xlink="http://www.w3.org/1999/xlink" x="0px" y="0px"
	 viewBox="0 0 301.8 200" style="enable-background:new 0 0 301.8 200;" xml:space="preserve">
<style type="text/css">
	.st0{fill:#606060;}
	.st1{fill:#009587;}
	.st2{fill:#616161;}
</style>
<title>Artboard 2</title>
<path class="st0" d="M151.9,0h124.4c1.8,0,3.7-0.1,5.5,0.1c4.4,0.4,5.4,2.6,2.8,6.3c-0.8,1-1.6,2-2.6,2.9
	c-39.8,41.7-79.7,83.4-119.5,125.1c-7.6,7.9-12.1,7.9-19.8-0.1C102.5,92.7,62.2,51.2,21.9,9.7c-0.6-0.5-1.1-1-1.5-1.6
	c-1-2-1.8-4.1-2.7-6.2c2-0.6,4-1.8,6-1.8C37.9-0.1,52.1,0,66.3,0L151.9,0z"/>
<path class="st0" d="M8.6,195.9c2.2-1.1,4.2-2.3,6.2-3.6C41.9,170.6,69,149,96,127.4c7.7-6.1,12.7-5.7,19.7,1.4
	c9.4,9.6,18.7,19.4,28.1,29c6.1,6.3,11.4,6.3,17.5,0c9.6-9.9,19.1-20,28.6-30c6.2-6.4,11.6-6.9,18.4-1.4
	c27.7,22,55.3,44.1,82.9,66.3c1.6,1.3,2.5,3.4,3.7,5.1c-2.1,0.7-4.2,2.1-6.3,2.1c-90.5,0.1-180.9,0.1-271.4,0
	c-2.3-0.2-4.5-0.5-6.7-1L8.6,195.9z"/>
<path class="st0" d="M0,97.6c0-25.4,0-50.8,0.1-76.2c0-2.2,1-4.4,1.6-6.6c2.2,1,4.9,1.6,6.4,3.2c26.8,27.4,53.4,54.9,80,82.4
	c5.8,6,5.3,11.1-1.2,16.4c-25.8,20.7-51.7,41.4-77.7,62c-1.8,1.4-4.6,1.7-6.9,2.5c-0.8-2.3-2.2-4.6-2.2-6.9
	C-0.1,148.8,0,123.2,0,97.6z"/>
<path class="st0" d="M301.8,97.4c0,24.5,0.1,49-0.1,73.5c0,2.5-1.5,4.9-2.4,7.4c-2.4-0.9-5.3-1.3-7.3-2.8
	c-24.7-19.5-49.3-39.2-73.8-59c-7.3-5.9-7.6-10.7-1.2-17.5c25.3-26.5,50.6-53.1,75.9-79.6c0.7-0.9,1.5-1.7,2.4-2.3
	c1.4-0.7,3.1-1.5,4.4-1.2c0.9,0.2,1.6,2.2,1.9,3.6c0.2,1.7,0.3,3.3,0.1,5C301.8,48.8,301.8,73.1,301.8,97.4z"/>
<path class="st1" d="M151.9,0h124.4c1.8,0,3.7-0.1,5.5,0.1c4.4,0.4,5.4,2.6,2.8,6.3c-0.8,1-1.6,2-2.6,2.9
	c-39.8,41.7-79.7,83.4-119.5,125.1c-7.6,7.9-12.1,7.9-19.8-0.1C102.5,92.7,62.2,51.2,21.9,9.7c-0.6-0.5-1.1-1-1.5-1.6
	c-1-2-1.8-4.1-2.7-6.2c2-0.6,4-1.8,6-1.8C37.9-0.1,52.1,0,66.3,0L151.9,0z"/>
<path class="st2" d="M8.6,195.9c2.2-1.1,4.2-2.3,6.2-3.6C41.9,170.6,69,149,96,127.4c7.7-6.1,12.7-5.7,19.7,1.4
	c9.4,9.6,18.7,19.4,28.1,29c6.1,6.3,11.4,6.3,17.5,0c9.6-9.9,19.1-20,28.6-30c6.2-6.4,11.6-6.9,18.4-1.4
	c27.7,22,55.3,44.1,82.9,66.3c1.6,1.3,2.5,3.4,3.7,5.1c-2.1,0.7-4.2,2.1-6.3,2.1c-90.5,0.1-180.9,0.1-271.4,0
	c-2.3-0.2-4.5-0.5-6.7-1L8.6,195.9z"/>
<path class="st2" d="M0,97.6c0-25.4,0-50.8,0.1-76.2c0-2.2,1-4.4,1.6-6.6c2.2,1,4.9,1.6,6.4,3.2c26.8,27.4,53.4,54.9,80,82.4
	c5.8,6,5.3,11.1-1.2,16.4c-25.8,20.7-51.7,41.4-77.7,62c-1.8,1.4-4.6,1.7-6.9,2.5c-0.8-2.3-2.2-4.6-2.2-6.9
	C-0.1,148.8,0,123.2,0,97.6z"/>
<path class="st2" d="M301.8,97.4c0,24.5,0.1,49-0.1,73.5c0,2.5-1.5,4.9-2.4,7.4c-2.4-0.9-5.3-1.3-7.3-2.8
	c-24.7-19.5-49.3-39.2-73.8-59c-7.3-5.9-7.6-10.7-1.2-17.5c25.3-26.5,50.6-53.1,75.9-79.6c0.7-0.9,1.5-1.7,2.4-2.3
	c1.4-0.7,3.1-1.5,4.4-1.2c0.9,0.2,1.6,2.2,1.9,3.6c0.2,1.7,0.3,3.3,0.1,5C301.8,48.8,301.8,73.1,301.8,97.4z"/>
</svg>
