<svg id="Layer_1" data-name="Layer 1" xmlns="http://www.w3.org/2000/svg" viewBox="0 0 270 273"><defs><style>.cls-1{fill:#2396f2;}.cls-2{fill:#5f5f5f;}</style></defs><title>mission</title><path class="cls-1" d="M127,259C70.8,259,23.27,216.77,16.87,161.1,9.85,100,51,46.18,112.14,37.39c31.36-4.5,59.65,4,84.61,23.62,3.06,2.4,3.13,3.8.26,6.32-4.12,3.62-7.29,9.59-11.94,11s-8.64-4.93-13.12-7.56c-55.32-32.49-126,2.93-133.14,66.8-5.53,49.81,29.73,93.55,79.56,98.69,48.28,5,92-30.75,96.85-79q3.57-35.45-17.86-63.73c-1.95-2.57-2.41-4.16.26-6.48a104.68,104.68,0,0,0,9.86-9.91c2.28-2.6,3.6-2.29,5.65.3a111.76,111.76,0,0,1-39.7,171.41A109.54,109.54,0,0,1,127,259Z"/><path class="cls-1" d="M57,142.83c1.13-23,13.07-44.52,37.78-57.33C118.87,73,143,74.76,165.92,89.37c5.46,3.47,5.39,3.6,1,8-3.18,3.17-5.88,7.55-9.72,9.16-4.2,1.76-7.74-3.17-11.78-4.75-26.92-10.52-57.08,3.7-65.41,31.1C71.49,160.79,88.35,190,116.4,196c28.22,6,55.69-13.07,59.41-41.48,1.52-11.58-.56-22.63-6.95-32.52-1.87-2.9-1.52-4.47.88-6.58a97.28,97.28,0,0,0,8.8-8.86c2.16-2.47,3.38-2.55,5.44.29,30.61,42.07,4.41,103.54-47.1,110.31C94,222.75,56.9,190.38,57,142.83Z"/><path class="cls-1" d="M153.39,132a30.85,30.85,0,0,1-49.57,36.32,31.2,31.2,0,0,1,.6-41.91c9.85-10.65,27.63-12.95,38.64-4.53-4.39,4.2-8.77,8.29-13,12.51a7.66,7.66,0,0,1-4.42,1.89c-6.67,1.31-10.35,6-10,12.27a11.23,11.23,0,0,0,10.17,10.54c6.3.52,10.93-3.06,12.35-9.74a7.23,7.23,0,0,1,1.91-3.93C144.46,141.05,148.76,136.65,153.39,132Z"/><path class="cls-1" d="M127,259C70.8,259,23.27,216.77,16.87,161.1,9.85,100,51,46.18,112.14,37.39c31.36-4.5,59.65,4,84.61,23.62,3.06,2.4,3.13,3.8.26,6.32-4.12,3.62-7.29,9.59-11.94,11s-8.64-4.93-13.12-7.56c-55.32-32.49-126,2.93-133.14,66.8-5.53,49.81,29.73,93.55,79.56,98.69,48.28,5,92-30.75,96.85-79q3.57-35.45-17.86-63.73c-1.95-2.57-2.41-4.16.26-6.48a104.68,104.68,0,0,0,9.86-9.91c2.28-2.6,3.6-2.29,5.65.3a111.76,111.76,0,0,1-39.7,171.41A109.54,109.54,0,0,1,127,259Z"/><path class="cls-1" d="M57,142.83c1.13-23,13.07-44.52,37.78-57.33C118.87,73,143,74.76,165.92,89.37c5.46,3.47,5.39,3.6,1,8-3.18,3.17-5.88,7.55-9.72,9.16-4.2,1.76-7.74-3.17-11.78-4.75-26.92-10.52-57.08,3.7-65.41,31.1C71.49,160.79,88.35,190,116.4,196c28.22,6,55.69-13.07,59.41-41.48,1.52-11.58-.56-22.63-6.95-32.52-1.87-2.9-1.52-4.47.88-6.58a97.28,97.28,0,0,0,8.8-8.86c2.16-2.47,3.38-2.55,5.44.29,30.61,42.07,4.41,103.54-47.1,110.31C94,222.75,56.9,190.38,57,142.83Z"/><path class="cls-1" d="M153.39,132a30.85,30.85,0,0,1-49.57,36.32,31.2,31.2,0,0,1,.6-41.91c9.85-10.65,27.63-12.95,38.64-4.53-4.39,4.2-8.77,8.29-13,12.51a7.66,7.66,0,0,1-4.42,1.89c-6.67,1.31-10.35,6-10,12.27a11.23,11.23,0,0,0,10.17,10.54c6.3.52,10.93-3.06,12.35-9.74a7.23,7.23,0,0,1,1.91-3.93C144.46,141.05,148.76,136.65,153.39,132Z"/><path class="cls-2" d="M257.68,35.12c-9.44,9.61-17.84,18.34-26.49,26.83-2.18,2.14-5.47.95-8.21.85a9.69,9.69,0,0,0-7.86,3.3q-38.36,39-76.89,77.89a17,17,0,0,1-3.25,3.08c-2.42,1.38-5.77,1.83-7.38-.07-1.48-1.75-1.42-5.06.52-7.4.85-1,1.85-1.91,2.8-2.86q38.14-38.2,76.35-76.33c2.85-2.83,4.47-5.62,3.74-9.61C210,45,212.19,41,216.81,37.13c6.64-5.52,12.42-12.05,18.62-18.11.75-.73,1.37-2.22,2.77-1.46,1,.54.61,1.8.63,2.75a85.54,85.54,0,0,1,.06,10c-.39,4.15,1.41,5.13,5.16,4.88C248.16,34.9,252.3,35.12,257.68,35.12Z"/></svg>